Coordinates
version=1
nRows=15
nColumns=42
inDegrees=yes

Units are S.I. units (second, meters, Newtons, ...)
If the header above contains a line with 'inDegrees', this indicates whether rotational values are in degrees (yes) or radians (no).

endheader
time	pelvis_tilt	pelvis_list	pelvis_rotation	pelvis_tx	pelvis_ty	pelvis_tz	hip_flexion_r	hip_adduction_r	hip_rotation_r	knee_angle_r	knee_adduction_r	knee_angle_r_beta	ankle_angle_r	subtalar_angle_r	mtp_angle_r	hip_flexion_l	hip_adduction_l	hip_rotation_l	knee_angle_l	knee_adduction_l	knee_angle_l_beta	ankle_angle_l	subtalar_angle_l	mtp_angle_l	lumbar_extension	lumbar_bending	lumbar_rotation	arm_flex_r	arm_add_r	arm_rot_r	elbow_flex_r	pro_sup_r	wrist_flex_r	wrist_dev_r	arm_flex_l	arm_add_l	arm_rot_l	elbow_flex_l	pro_sup_l	wrist_flex_l	wrist_dev_l
      2.43000000	      9.26532417	      3.38008234	     -2.49058754	      1.65721117	      0.85886170	     -0.17488493	     16.33102114	     -5.97691393	      1.77039666	     16.30186412	     -2.52395745	      0.28452120	     14.04863695	      9.91941980	     -7.50013452	    -29.33050788	      4.59198288	    -15.73283013	      5.86544624	      6.07628211	      0.10237135	     19.26169175	     16.33670364	     -7.50013452	    -19.94183799	     -5.33153290	     -4.80537053	     -6.87981876	     -2.06058085	    -29.53536266	     31.62807521	     90.00000001	      0.00000000	      0.00000000	      1.50795371	     -6.87066796	     -5.40016223	     48.74244978	     90.00000001	      0.00000000	      0.00000000
      2.44000000	      9.04636966	      3.52361934	     -2.51393553	      1.66984422	      0.85706722	     -0.17350880	     16.82628656	     -5.85177256	      2.36229804	     16.51212079	     -2.60424568	      0.28819087	     14.09924050	      9.97403940	     -7.50013164	    -29.39543825	      4.55284222	    -15.85038745	      7.06449976	      5.76818542	      0.12329878	     19.35347593	     16.36772217	     -7.50013164	    -19.51634498	     -5.46726265	     -4.73707117	     -6.79011387	     -2.06048851	    -29.88142907	     31.06100131	     90.00000001	      0.00000000	      0.00000000	      1.78633395	     -6.73303416	     -5.42308229	     48.20588763	     90.00000001	      0.00000000	      0.00000000
      2.45000000	      8.66901925	      3.53860281	     -2.39573311	      1.68298102	      0.85523126	     -0.17197340	     17.29674377	     -5.61554856	      2.73915078	     16.90053609	     -2.58866375	      0.29497000	     13.99257159	      9.97154522	     -7.50013079	    -29.43158921	      4.36008349	    -15.41162495	      7.92941757	      5.40196834	      0.13839444	     19.18185891	     16.39827969	     -7.50013079	    -18.89488810	     -5.45720978	     -4.82079366	     -6.93879003	     -2.02000575	    -29.91681742	     31.03790108	     90.00000001	      0.00000000	      0.00000000	      1.68740544	     -6.68033069	     -5.42272165	     48.13022808	     90.00000001	      0.00000000	      0.00000000
      2.46000000	      8.52473888	      3.43245143	     -2.40523843	      1.69587627	      0.85369525	     -0.17007942	     17.83064271	     -5.14538732	      2.81759771	     18.48583352	     -2.64950345	      0.32263866	     14.12992717	      9.10981348	     -7.50012862	    -29.51017624	      3.95209137	    -15.58037302	      9.31333201	      5.21025526	      0.16254831	     18.86483624	     16.25349066	     -7.50012862	    -18.57661069	     -5.36239852	     -4.73574602	     -6.87323703	     -1.94599809	    -30.10250684	     30.80958036	     90.00000001	      0.00000000	      0.00000000	      1.83440848	     -6.57286872	     -5.52941317	     47.68609148	     90.00000001	      0.00000000	      0.00000000
      2.47000000	      8.24705392	      3.16055569	     -2.35504903	      1.70938066	      0.85213077	     -0.16830224	     18.31273950	     -4.55805506	      2.69844471	     20.07471161	     -2.62562401	      0.35036981	     13.97635868	      8.40367002	     -7.50012598	    -29.52227087	      3.43044150	    -15.84005031	     10.54327653	      4.86445555	      0.18401489	     18.48167664	     16.31100264	     -7.50012598	    -18.04403257	     -5.06398754	     -4.66664730	     -6.93047618	     -1.94116049	    -30.36819606	     30.74016577	     90.00000001	      0.00000000	      0.00000000	      1.75967869	     -6.44483425	     -5.68524637	     47.38567300	     90.00000001	      0.00000000	      0.00000000
      2.48000000	      8.01814312	      2.85758197	     -2.29869850	      1.72296787	      0.85081910	     -0.16641789	     18.64449372	     -3.91345952	      2.58237125	     21.72362602	     -2.70256601	      0.37914880	     13.75647455	      8.02177506	     -7.50012335	    -29.54139136	      2.87082392	    -16.12120163	     11.83222157	      4.49304680	      0.20651122	     17.90469103	     16.38395113	     -7.50012335	    -17.58659442	     -4.73659582	     -4.61789111	     -6.97197660	     -1.90929131	    -30.52763366	     30.74853964	     90.00000001	      0.00000000	      0.00000000	      1.63345122	     -6.32371895	     -5.84164699	     47.10886777	     90.00000001	      0.00000000	      0.00000000
      2.49000000	      7.83072818	      2.47116906	     -2.23899715	      1.73665294	      0.84978121	     -0.16446187	     18.87694400	     -3.17780165	      2.41079154	     23.46349180	     -2.86811723	      0.40951519	     13.44833329	      7.95768300	     -7.50012070	    -29.55606236	      2.23364454	    -16.45387030	     13.16737514	      4.08555780	      0.22981405	     17.10785992	     16.41988060	     -7.50012070	    -17.19535370	     -4.32630144	     -4.57624369	     -6.99972368	     -1.90507700	    -30.59375864	     30.82333558	     90.00000001	      0.00000000	      0.00000000	      1.45821516	     -6.21007854	     -6.02122660	     46.83971087	     90.00000001	      0.00000000	      0.00000000
      2.50000000	      7.71597473	      2.09382820	     -2.21817894	      1.75030457	      0.84907243	     -0.16243571	     19.01014228	     -2.46473233	      2.33180486	     25.26557279	     -3.03429190	      0.44096743	     13.12217292	      8.01165929	     -7.50011871	    -29.57144284	      1.61461911	    -16.78609279	     14.59760205	      3.70246562	      0.25477622	     15.99745053	     16.26484880	     -7.50011871	    -16.91424398	     -3.93649759	     -4.51524633	     -6.99062463	     -1.90128135	    -30.56769159	     30.90351285	     90.00000001	      0.00000000	      0.00000000	      1.27493980	     -6.11302338	     -6.20516271	     46.57740603	     90.00000001	      0.00000000	      0.00000000
      2.51000000	      7.69725491	      1.25934655	     -2.05469934	      1.76438544	      0.84869005	     -0.16026376	     18.99589383	     -1.27783467	      1.37692532	     27.12866396	     -3.58579829	      0.47348451	     12.93458747	      9.17667795	     -7.50011086	    -29.55887522	      0.43920594	    -17.79898171	     16.33331190	      3.09768521	      0.28507007	     15.01058871	     16.95433539	     -7.50011086	    -16.72478100	     -3.04544895	     -4.49578444	     -7.06930464	     -1.93825449	    -30.30762950	     31.11706450	     90.00000001	      0.00000000	      0.00000000	      1.00415038	     -5.92371944	     -6.66442101	     46.32571433	     90.00000001	      0.00000000	      0.00000000
      2.52000000	      7.72153512	      0.81135541	     -2.08861190	      1.77811080	      0.84870878	     -0.15826891	     18.90339354	     -0.54671636	      1.60385696	     28.93920916	     -3.63096752	      0.50508448	     12.82767312	      8.97875820	     -7.50010914	    -29.53378129	     -0.12993170	    -18.13693728	     17.91849929	      2.49835316	      0.31273681	     13.24910622	     16.45506397	     -7.50010914	    -16.63893316	     -2.58470896	     -4.45670832	     -6.95675443	     -1.96270787	    -30.20834545	     31.23969242	     90.00000001	      0.00000000	      0.00000000	      0.71997848	     -5.84247224	     -6.85214524	     46.08375452	     90.00000001	      0.00000000	      0.00000000
      2.53000000	      7.84982609	      0.01352788	     -2.05440582	      1.79196141	      0.84915398	     -0.15606818	     18.52101179	      0.60484064	      1.94970998	     30.51480078	     -3.70756543	      0.53258374	     12.72009617	      8.41894585	     -7.50010497	    -29.50350230	     -1.16049997	    -18.59153284	     19.75116497	      1.99886235	      0.34472286	     11.35924809	     15.76697742	     -7.50010497	    -16.68742084	     -1.76635997	     -4.39698259	     -6.91358035	     -2.01635083	    -29.80918353	     31.48790789	     90.00000001	      0.00000000	      0.00000000	      0.41180264	     -5.67574333	     -7.32779496	     45.83786272	     90.00000001	      0.00000000	      0.00000000
      2.54000000	      8.12046465	     -0.51406306	     -1.99051716	      1.80573809	      0.84999984	     -0.15418263	     17.93972938	      1.34918334	      2.54753912	     32.06715608	     -3.49779223	      0.55967746	     13.12437362	      7.80242865	     -7.50010335	    -29.43027435	     -1.82758566	    -18.83860250	     21.70703176	      1.25874711	      0.37885918	      9.14556586	     14.97472792	     -7.50010335	    -16.90556625	     -1.22563217	     -4.44501789	     -6.76360165	     -2.04495659	    -29.60951010	     31.67449599	     90.00000001	      0.00000000	      0.00000000	      0.10033292	     -5.59972146	     -7.58422358	     45.63369644	     90.00000001	      0.00000000	      0.00000000
      2.55000000	      8.50154225	     -1.14812249	     -1.91893321	      1.81950093	      0.85117360	     -0.15226635	     17.06508588	      2.20838330	      3.28173034	     33.33262054	     -3.19156097	      0.58176398	     13.63592880	      6.88120497	     -7.50010186	    -29.30371273	     -2.63710616	    -19.02912328	     23.92544091	      0.55742425	      0.41757772	      6.71805976	     13.88623606	     -7.50010186	    -17.25724065	     -0.58215698	     -4.47776633	     -6.62136625	     -2.07365629	    -29.33181476	     31.96258375	     90.00000001	      0.00000000	      0.00000000	     -0.23618170	     -5.49846614	     -7.92306322	     45.44969349	     90.00000001	      0.00000000	      0.00000000
      2.56000000	      8.96073779	     -1.82627735	     -1.81327701	      1.83309553	      0.85267324	     -0.15049396	     15.91722076	      3.10420982	      4.15034476	     34.22077489	     -2.81707272	      0.59726519	     14.22052555	      5.77329962	     -7.50010046	    -29.06848355	     -3.50023839	    -19.05163628	     26.40495714	     -0.13689303	      0.46085344	      4.26516204	     12.54421128	     -7.50010046	    -17.71891344	      0.12247960	     -4.52675103	     -6.44367309	     -2.10661717	    -28.97648355	     32.34733214	     90.00000001	      0.00000000	      0.00000000	     -0.56780492	     -5.39029584	     -8.28051834	     45.27260281	     90.00000001	      0.00000000	      0.00000000
      2.57000000	      9.34467591	     -3.16855085	     -1.74931791	      1.84633094	      0.85453040	     -0.14802946	     14.33482780	      5.01961278	      6.35216873	     34.16908943	     -2.19432153	      0.59636311	     13.89493132	      2.02912381	     -7.50009465	    -28.65407708	     -5.13205150	    -18.82557694	     29.19027897	     -0.42127156	      0.50946648	      1.94726971	      9.62942341	     -7.50009465	    -18.16539809	      1.44355949	     -4.31266682	     -6.41783359	     -2.29050560	    -27.65889960	     32.91133822	     90.00000001	      0.00000000	      0.00000000	     -0.84429127	     -5.17672692	     -8.98728039	     44.99737087	     90.00000001	      0.00000000	      0.00000000
